<svg width="1760" height="1101" xmlns="http://www.w3.org/2000/svg" xmlns:xlink="http://www.w3.org/1999/xlink" xml:space="preserve" overflow="hidden"><defs><clipPath id="clip0"><rect x="3520" y="1237" width="1760" height="1101"/></clipPath></defs><g clip-path="url(#clip0)" transform="translate(-3520 -1237)"><rect x="3520.5" y="1237.5" width="1760" height="1100" fill="#FFFFFF"/><rect x="3520.5" y="1237.5" width="1760" height="1100" stroke="#D9D9D9" stroke-width="3.4375" stroke-miterlimit="2" fill="none"/><g><path d="M3648.5 2286.5 5250.5 2286.5" stroke="#D9D9D9" stroke-width="3.4375" stroke-miterlimit="2" fill="none"/><path d="M3648.5 2209.5 5250.5 2209.5" stroke="#D9D9D9" stroke-width="3.4375" stroke-miterlimit="2" fill="none"/><path d="M3648.5 2132.5 5250.5 2132.5" stroke="#D9D9D9" stroke-width="3.4375" stroke-miterlimit="2" fill="none"/><path d="M3648.5 2055.5 5250.5 2055.5" stroke="#D9D9D9" stroke-width="3.4375" stroke-miterlimit="2" fill="none"/><path d="M3648.5 1978.5 5250.5 1978.5" stroke="#D9D9D9" stroke-width="3.4375" stroke-miterlimit="2" fill="none"/><path d="M3648.5 1900.5 5250.5 1900.5" stroke="#D9D9D9" stroke-width="3.4375" stroke-miterlimit="2" fill="none"/><path d="M3648.5 1823.5 5250.5 1823.5" stroke="#D9D9D9" stroke-width="3.4375" stroke-miterlimit="2" fill="none"/><path d="M3648.5 1746.5 5250.5 1746.5" stroke="#D9D9D9" stroke-width="3.4375" stroke-miterlimit="2" fill="none"/><path d="M3648.5 1669.5 5250.5 1669.5" stroke="#D9D9D9" stroke-width="3.4375" stroke-miterlimit="2" fill="none"/><path d="M3648.5 1591.5 5250.5 1591.5" stroke="#D9D9D9" stroke-width="3.4375" stroke-miterlimit="2" fill="none"/><path d="M3648.5 1514.5 5250.5 1514.5" stroke="#D9D9D9" stroke-width="3.4375" stroke-miterlimit="2" fill="none"/><path d="M4131.5 1971.5 4206.5 1971.5" stroke="#598A38" stroke-width="3.4375" stroke-miterlimit="2" fill="none"/><path d="M4169.5 1941.5 4169.5 1971.5" stroke="#598A38" stroke-width="3.4375" stroke-miterlimit="2" fill="none"/><path d="M4131.5 1765.5 4206.5 1765.5" stroke="#598A38" stroke-width="3.4375" stroke-miterlimit="2" fill="none"/><path d="M4169.5 1765.5 4169.5 1778.5" stroke="#598A38" stroke-width="3.4375" stroke-miterlimit="2" fill="none"/><rect x="4045.5" y="1778.5" width="247" height="163" fill="#70AD47"/><rect x="4045.5" y="1778.5" width="247" height="163" stroke="#598A38" stroke-width="3.4375" stroke-miterlimit="2" fill="none"/><path d="M4045.5 1778.5 4292.5 1778.5" stroke="#598A38" stroke-width="3.4375" stroke-miterlimit="2" fill="none"/><path d="M4045.5 1941.5 4292.5 1941.5" stroke="#598A38" stroke-width="3.4375" stroke-miterlimit="2" fill="none"/><path d="M4045.5 1868.5 4292.5 1868.5" stroke="#598A38" stroke-width="3.4375" stroke-miterlimit="2" fill="none"/><path d="M4155.5 1878.5 4182.5 1850.5" stroke="#598A38" stroke-width="3.4375" stroke-miterlimit="2" fill="none"/><path d="M4155.5 1850.5 4182.5 1878.5" stroke="#598A38" stroke-width="3.4375" stroke-miterlimit="2" fill="none"/><path d="M4403.5 1958.5 4477.5 1958.5" stroke="#487CAA" stroke-width="3.4375" stroke-miterlimit="2" fill="none"/><path d="M4440.5 1878.5 4440.5 1958.5" stroke="#487CAA" stroke-width="3.4375" stroke-miterlimit="2" fill="none"/><path d="M4403.5 1727.5 4477.5 1727.5" stroke="#487CAA" stroke-width="3.4375" stroke-miterlimit="2" fill="none"/><path d="M4440.5 1727.5 4440.5 1752.5" stroke="#487CAA" stroke-width="3.4375" stroke-miterlimit="2" fill="none"/><rect x="4316.5" y="1752.5" width="248" height="126" fill="#5B9BD5"/><rect x="4316.5" y="1752.5" width="248" height="126" stroke="#487CAA" stroke-width="3.4375" stroke-miterlimit="2" fill="none"/><path d="M4316.5 1752.5 4564.5 1752.5" stroke="#487CAA" stroke-width="3.4375" stroke-miterlimit="2" fill="none"/><path d="M4316.5 1878.5 4564.5 1878.5" stroke="#487CAA" stroke-width="3.4375" stroke-miterlimit="2" fill="none"/><path d="M4316.5 1820.5 4564.5 1820.5" stroke="#487CAA" stroke-width="3.4375" stroke-miterlimit="2" fill="none"/><path d="M4426.5 1838.5 4454.5 1810.5" stroke="#487CAA" stroke-width="3.4375" stroke-miterlimit="2" fill="none"/><path d="M4426.5 1810.5 4454.5 1838.5" stroke="#487CAA" stroke-width="3.4375" stroke-miterlimit="2" fill="none"/><path d="M4675.5 2016.5 4749.5 2016.5" stroke="#CC9900" stroke-width="3.4375" stroke-miterlimit="2" fill="none"/><path d="M4712.5 1929.5 4712.5 2016.5" stroke="#CC9900" stroke-width="3.4375" stroke-miterlimit="2" fill="none"/><path d="M4675.5 1720.5 4749.5 1720.5" stroke="#CC9900" stroke-width="3.4375" stroke-miterlimit="2" fill="none"/><path d="M4712.5 1720.5 4712.5 1773.5" stroke="#CC9900" stroke-width="3.4375" stroke-miterlimit="2" fill="none"/><rect x="4588.5" y="1773.5" width="247" height="156" fill="#FFC000"/><rect x="4588.5" y="1773.5" width="247" height="156" stroke="#CC9900" stroke-width="3.4375" stroke-miterlimit="2" fill="none"/><path d="M4588.5 1773.5 4835.5 1773.5" stroke="#CC9900" stroke-width="3.4375" stroke-miterlimit="2" fill="none"/><path d="M4588.5 1929.5 4835.5 1929.5" stroke="#CC9900" stroke-width="3.4375" stroke-miterlimit="2" fill="none"/><path d="M4588.5 1849.5 4835.5 1849.5" stroke="#CC9900" stroke-width="3.4375" stroke-miterlimit="2" fill="none"/><path d="M4698.5 1867.5 4725.5 1839.5" stroke="#CC9900" stroke-width="3.4375" stroke-miterlimit="2" fill="none"/><path d="M4698.5 1839.5 4725.5 1867.5" stroke="#CC9900" stroke-width="3.4375" stroke-miterlimit="2" fill="none"/></g><path d="M3648.5 2286.5 3648.5 1514.5" stroke="#D9D9D9" stroke-width="3.4375" stroke-miterlimit="2" fill="none"/><text fill="#595959" font-family="Calibri,Calibri_MSFontService,sans-serif" font-weight="400" font-size="12" transform="matrix(3.4375 0 0 3.4375 3565.87 2261.39)" x="0.11733" y="3.3519">0.8<tspan font-size="12" x="-6.03743" y="-19.09">0.82</tspan><tspan font-size="12" x="-6.03743" y="-41.5319">0.84</tspan><tspan font-size="12" x="-6.03743" y="-63.9738">0.86</tspan><tspan font-size="12" x="-6.03743" y="-86.5003">0.88</tspan><tspan font-size="12" x="0.11733" y="-108.942">0.9</tspan><tspan font-size="12" x="-6.03743" y="-131.384">0.92</tspan><tspan font-size="12" x="-6.03743" y="-153.826">0.94</tspan><tspan font-size="12" x="-6.03743" y="-176.268">0.96</tspan><tspan font-size="12" x="-6.03743" y="-198.794">0.98</tspan><tspan font-size="12" x="9.33601" y="-221.236">1</tspan></text><g><text fill="#595959" font-family="Calibri,Calibri_MSFontService,sans-serif" font-weight="400" font-size="64" transform="translate(3925.21 1323)">CIFAKE Accuracy by Model Structure</text></g><rect x="3912" y="1358" width="976" height="114" fill="#000000" fill-opacity="0"/><rect x="3953.5" y="1398.5" width="33" height="33" fill="#70AD47"/><rect x="3953.5" y="1398.5" width="33" height="33" stroke="#598A38" stroke-width="3.4375" stroke-miterlimit="2" fill="none"/><text fill="#595959" font-family="Calibri,Calibri_MSFontService,sans-serif" font-weight="400" font-size="12" transform="matrix(3.4375 0 0 3.4375 4002.65 1389.68)" x="0.138636" y="3.41189">CIFAKE ConvNeXt</text><rect x="4327.5" y="1398.5" width="33" height="33" fill="#5B9BD5"/><rect x="4327.5" y="1398.5" width="33" height="33" stroke="#487CAA" stroke-width="3.4375" stroke-miterlimit="2" fill="none"/><text fill="#595959" font-family="Calibri,Calibri_MSFontService,sans-serif" font-weight="400" font-size="12" transform="matrix(3.4375 0 0 3.4375 4376.96 1389.68)" x="0.158523" y="3.41189">CIFAKE SwinT</text><rect x="4635.5" y="1398.5" width="33" height="33" fill="#FFC000"/><rect x="4635.5" y="1398.5" width="33" height="33" stroke="#CC9900" stroke-width="3.4375" stroke-miterlimit="2" fill="none"/><text fill="#595959" font-family="Calibri,Calibri_MSFontService,sans-serif" font-weight="400" font-size="12" transform="matrix(3.4375 0 0 3.4375 4684.81 1389.68)" x="0.0840909" y="3.41189">CIFAKE ViT</text><path d="M3520 1238 5280 1238 5280 2338 3520 2338Z" fill="#000000" fill-rule="evenodd" fill-opacity="0"/></g></svg>