<svg width="1761" height="1111" xmlns="http://www.w3.org/2000/svg" xmlns:xlink="http://www.w3.org/1999/xlink" xml:space="preserve" overflow="hidden"><defs><clipPath id="clip0"><rect x="3519" y="9418" width="1761" height="1111"/></clipPath></defs><g clip-path="url(#clip0)" transform="translate(-3519 -9418)"><rect x="3520" y="9419" width="1758" height="1108" fill="#FFFFFF"/><g><path d="M3858.63 9588.5 3858.63 10316.5M4050.63 9588.5 4050.63 10316.5M4242.64 9588.5 4242.64 10316.5M4433.65 9588.5 4433.65 10316.5M4625.65 9588.5 4625.65 10316.5M4817.66 9588.5 4817.66 10316.5M5009.66 9588.5 5009.66 10316.5M5201.5 9588.5 5201.5 10316.5" stroke="#D9D9D9" stroke-width="3.4375" stroke-linejoin="round" stroke-miterlimit="10" fill="none"/></g><g><path d="M4432.15 10247.3 3667 10247.3 3667 10172.3 4432.15 10172.3ZM4878.16 9883.32 3667 9883.32 3667 9808.32 4878.16 9808.32Z" fill="#70AD47"/></g><g><path d="M4506.15 10172.3 3667 10172.3 3667 10096.3 4506.15 10096.3ZM4914.16 9808.32 3667 9808.32 3667 9733.32 4914.16 9733.32Z" fill="#5B9BD5"/></g><g><path d="M4603.15 10096.3 3667 10096.3 3667 10021.3 4603.15 10021.3ZM5017.16 9733.32 3667 9733.32 3667 9657.32 5017.16 9657.32Z" fill="#FFC000"/></g><g><path d="M0 0 0.000360892 728" stroke="#D9D9D9" stroke-width="3.4375" stroke-linejoin="round" stroke-miterlimit="10" fill="none" fill-rule="evenodd" transform="matrix(1 0 0 -1 3666.5 10316.5)"/></g><g><text fill="#595959" font-family="Calibri,Calibri_MSFontService,sans-serif" font-weight="400" font-size="41" transform="matrix(1 0 0 1 3656.05 10381)">0</text></g><g><text fill="#595959" font-family="Calibri,Calibri_MSFontService,sans-serif" font-weight="400" font-size="41" transform="matrix(1 0 0 1 3821.86 10381)">0.05</text></g><g><text fill="#595959" font-family="Calibri,Calibri_MSFontService,sans-serif" font-weight="400" font-size="41" transform="matrix(1 0 0 1 4024.22 10381)">0.1</text></g><g><text fill="#595959" font-family="Calibri,Calibri_MSFontService,sans-serif" font-weight="400" font-size="41" transform="matrix(1 0 0 1 4205.67 10381)">0.15</text></g><g><text fill="#595959" font-family="Calibri,Calibri_MSFontService,sans-serif" font-weight="400" font-size="41" transform="matrix(1 0 0 1 4408.03 10381)">0.2</text></g><g><text fill="#595959" font-family="Calibri,Calibri_MSFontService,sans-serif" font-weight="400" font-size="41" transform="matrix(1 0 0 1 4589.49 10381)">0.25</text></g><g><text fill="#595959" font-family="Calibri,Calibri_MSFontService,sans-serif" font-weight="400" font-size="41" transform="matrix(1 0 0 1 4791.85 10381)">0.3</text></g><g><text fill="#595959" font-family="Calibri,Calibri_MSFontService,sans-serif" font-weight="400" font-size="41" transform="matrix(1 0 0 1 4973.3 10381)">0.35</text></g><g><text fill="#595959" font-family="Calibri,Calibri_MSFontService,sans-serif" font-weight="400" font-size="41" transform="matrix(1 0 0 1 5175.66 10381)">0.4</text></g><g><text fill="#595959" font-family="Calibri,Calibri_MSFontService,sans-serif" font-weight="400" font-size="41" transform="matrix(1 0 0 1 3586.09 10146)">CE</text></g><g><text fill="#595959" font-family="Calibri,Calibri_MSFontService,sans-serif" font-weight="400" font-size="41" transform="matrix(1 0 0 1 3549.79 9782)">LSCE</text></g><g><text fill="#595959" font-family="Calibri,Calibri_MSFontService,sans-serif" font-weight="400" font-size="64" transform="matrix(1 0 0 1 4004.52 9514)">CIFAKE Test Best Model Losses</text></g><g><rect x="4164" y="10450" width="22" height="22" fill="#FFC000"/></g><g><text fill="#595959" font-family="Calibri,Calibri_MSFontService,sans-serif" font-weight="400" font-size="41" transform="matrix(1 0 0 1 4195.9 10473)">ViT</text></g><g><rect x="4285" y="10450" width="22" height="22" fill="#5B9BD5"/></g><g><text fill="#595959" font-family="Calibri,Calibri_MSFontService,sans-serif" font-weight="400" font-size="41" transform="matrix(1 0 0 1 4316.93 10473)">SwinT</text></g><g><rect x="4452" y="10450" width="23" height="22" fill="#70AD47"/></g><g><text fill="#595959" font-family="Calibri,Calibri_MSFontService,sans-serif" font-weight="400" font-size="41" transform="matrix(1 0 0 1 4484.68 10473)">ConvNeXt</text></g><rect x="3520.5" y="9419.5" width="1758" height="1108" stroke="#D9D9D9" stroke-width="3.4375" stroke-linejoin="round" stroke-miterlimit="10" fill="none"/></g></svg>