<svg width="1755" height="1102" xmlns="http://www.w3.org/2000/svg" xmlns:xlink="http://www.w3.org/1999/xlink" xml:space="preserve" overflow="hidden"><defs><clipPath id="clip0"><rect x="3524" y="8319" width="1755" height="1102"/></clipPath></defs><g clip-path="url(#clip0)" transform="translate(-3524 -8319)"><rect x="3525" y="8320" width="1752" height="1099" fill="#FFFFFF"/><g><path d="M3905.63 8490.5 3905.63 9207.5M4066.63 8490.5 4066.63 9207.5M4226.64 8490.5 4226.64 9207.5M4387.64 8490.5 4387.64 9207.5M4547.65 8490.5 4547.65 9207.5M4708.65 8490.5 4708.65 9207.5M4868.66 8490.5 4868.66 9207.5M5028.67 8490.5 5028.67 9207.5M5189.5 8490.5 5189.5 9207.5" stroke="#D9D9D9" stroke-width="3.4375" stroke-linejoin="round" stroke-miterlimit="10" fill="none"/></g><g><path d="M4979.16 9173.3 3745 9173.3 3745 9136.3 4979.16 9136.3ZM4975.16 8994.29 3745 8994.29 3745 8957.29 4975.16 8957.29ZM4975.16 8815.29 3745 8815.29 3745 8778.29 4975.16 8778.29ZM4975.16 8636.28 3745 8636.28 3745 8598.28 4975.16 8598.28Z" fill="#70AD47"/></g><g><path d="M4784.16 9136.3 3745 9136.3 3745 9099.3 4784.16 9099.3ZM4719.15 8957.29 3745 8957.29 3745 8920.29 4719.15 8920.29ZM4746.16 8778.29 3745 8778.29 3745 8740.29 4746.16 8740.29ZM4762.16 8598.28 3745 8598.28 3745 8561.28 4762.16 8561.28Z" fill="#5B9BD5"/></g><g><path d="M4285.14 9099.3 3745 9099.3 3745 9062.3 4285.14 9062.3ZM4246.14 8920.29 3745 8920.29 3745 8883.29 4246.14 8883.29ZM4226.14 8740.29 3745 8740.29 3745 8703.29 4226.14 8703.29ZM4227.14 8561.28 3745 8561.28 3745 8524.28 4227.14 8524.28Z" fill="#FFC000"/></g><g><path d="M0 0 0.000360892 717" stroke="#D9D9D9" stroke-width="3.4375" stroke-linejoin="round" stroke-miterlimit="10" fill="none" fill-rule="evenodd" transform="matrix(1 0 0 -1 3745.5 9207.5)"/></g><g><text fill="#595959" font-family="Calibri,Calibri_MSFontService,sans-serif" font-weight="400" font-size="41" transform="matrix(1 0 0 1 3698.38 9273)">0.905</text></g><g><text fill="#595959" font-family="Calibri,Calibri_MSFontService,sans-serif" font-weight="400" font-size="41" transform="matrix(1 0 0 1 3869.3 9273)">0.91</text></g><g><text fill="#595959" font-family="Calibri,Calibri_MSFontService,sans-serif" font-weight="400" font-size="41" transform="matrix(1 0 0 1 4019.32 9273)">0.915</text></g><g><text fill="#595959" font-family="Calibri,Calibri_MSFontService,sans-serif" font-weight="400" font-size="41" transform="matrix(1 0 0 1 4190.23 9273)">0.92</text></g><g><text fill="#595959" font-family="Calibri,Calibri_MSFontService,sans-serif" font-weight="400" font-size="41" transform="matrix(1 0 0 1 4340.25 9273)">0.925</text></g><g><text fill="#595959" font-family="Calibri,Calibri_MSFontService,sans-serif" font-weight="400" font-size="41" transform="matrix(1 0 0 1 4511.17 9273)">0.93</text></g><g><text fill="#595959" font-family="Calibri,Calibri_MSFontService,sans-serif" font-weight="400" font-size="41" transform="matrix(1 0 0 1 4661.19 9273)">0.935</text></g><g><text fill="#595959" font-family="Calibri,Calibri_MSFontService,sans-serif" font-weight="400" font-size="41" transform="matrix(1 0 0 1 4832.11 9273)">0.94</text></g><g><text fill="#595959" font-family="Calibri,Calibri_MSFontService,sans-serif" font-weight="400" font-size="41" transform="matrix(1 0 0 1 4982.12 9273)">0.945</text></g><g><text fill="#595959" font-family="Calibri,Calibri_MSFontService,sans-serif" font-weight="400" font-size="41" transform="matrix(1 0 0 1 5153.04 9273)">0.95</text></g><g><text fill="#595959" font-family="Calibri,Calibri_MSFontService,sans-serif" font-weight="400" font-size="41" transform="matrix(1 0 0 1 3554.95 9129)">Precision</text></g><g><text fill="#595959" font-family="Calibri,Calibri_MSFontService,sans-serif" font-weight="400" font-size="41" transform="matrix(1 0 0 1 3608.07 8950)">Recall</text></g><g><text fill="#595959" font-family="Calibri,Calibri_MSFontService,sans-serif" font-weight="400" font-size="41" transform="matrix(1 0 0 1 3564.87 8771)">F1 Score</text></g><g><text fill="#595959" font-family="Calibri,Calibri_MSFontService,sans-serif" font-weight="400" font-size="41" transform="matrix(1 0 0 1 3556.41 8592)">Accuracy</text></g><g><text fill="#595959" font-family="Calibri,Calibri_MSFontService,sans-serif" font-weight="400" font-size="64" transform="matrix(1 0 0 1 3975.54 8416)">CIFAKE Test Best Model Statistics</text></g><g><rect x="4165" y="9341" width="23" height="23" fill="#FFC000"/></g><g><text fill="#595959" font-family="Calibri,Calibri_MSFontService,sans-serif" font-weight="400" font-size="41" transform="matrix(1 0 0 1 4197.62 9364)">ViT</text></g><g><rect x="4286" y="9341" width="23" height="23" fill="#5B9BD5"/></g><g><text fill="#595959" font-family="Calibri,Calibri_MSFontService,sans-serif" font-weight="400" font-size="41" transform="matrix(1 0 0 1 4318.65 9364)">SwinT</text></g><g><rect x="4454" y="9341" width="23" height="23" fill="#70AD47"/></g><g><text fill="#595959" font-family="Calibri,Calibri_MSFontService,sans-serif" font-weight="400" font-size="41" transform="matrix(1 0 0 1 4486.4 9364)">ConvNeXt</text></g><rect x="3525.5" y="8320.5" width="1752" height="1099" stroke="#D9D9D9" stroke-width="3.4375" stroke-linejoin="round" stroke-miterlimit="10" fill="none"/></g></svg>