<svg width="1760" height="1101" xmlns="http://www.w3.org/2000/svg" xmlns:xlink="http://www.w3.org/1999/xlink" xml:space="preserve" overflow="hidden"><defs><clipPath id="clip0"><rect x="1760" y="1237" width="1760" height="1101"/></clipPath></defs><g clip-path="url(#clip0)" transform="translate(-1760 -1237)"><rect x="1760.5" y="1237.5" width="1760" height="1100" fill="#FFFFFF"/><rect x="1760.5" y="1237.5" width="1760" height="1100" stroke="#D9D9D9" stroke-width="3.4375" stroke-miterlimit="2" fill="none"/><g><path d="M1888.5 2286.5 3490.5 2286.5" stroke="#D9D9D9" stroke-width="3.4375" stroke-miterlimit="2" fill="none"/><path d="M1888.5 2209.5 3490.5 2209.5" stroke="#D9D9D9" stroke-width="3.4375" stroke-miterlimit="2" fill="none"/><path d="M1888.5 2132.5 3490.5 2132.5" stroke="#D9D9D9" stroke-width="3.4375" stroke-miterlimit="2" fill="none"/><path d="M1888.5 2055.5 3490.5 2055.5" stroke="#D9D9D9" stroke-width="3.4375" stroke-miterlimit="2" fill="none"/><path d="M1888.5 1978.5 3490.5 1978.5" stroke="#D9D9D9" stroke-width="3.4375" stroke-miterlimit="2" fill="none"/><path d="M1888.5 1900.5 3490.5 1900.5" stroke="#D9D9D9" stroke-width="3.4375" stroke-miterlimit="2" fill="none"/><path d="M1888.5 1823.5 3490.5 1823.5" stroke="#D9D9D9" stroke-width="3.4375" stroke-miterlimit="2" fill="none"/><path d="M1888.5 1746.5 3490.5 1746.5" stroke="#D9D9D9" stroke-width="3.4375" stroke-miterlimit="2" fill="none"/><path d="M1888.5 1669.5 3490.5 1669.5" stroke="#D9D9D9" stroke-width="3.4375" stroke-miterlimit="2" fill="none"/><path d="M1888.5 1591.5 3490.5 1591.5" stroke="#D9D9D9" stroke-width="3.4375" stroke-miterlimit="2" fill="none"/><path d="M1888.5 1514.5 3490.5 1514.5" stroke="#D9D9D9" stroke-width="3.4375" stroke-miterlimit="2" fill="none"/><path d="M2371.5 2005.5 2446.5 2005.5" stroke="#598A38" stroke-width="3.4375" stroke-miterlimit="2" fill="none"/><path d="M2409.5 1877.5 2409.5 2005.5" stroke="#598A38" stroke-width="3.4375" stroke-miterlimit="2" fill="none"/><path d="M2371.5 1667.5 2446.5 1667.5" stroke="#598A38" stroke-width="3.4375" stroke-miterlimit="2" fill="none"/><path d="M2409.5 1667.5 2409.5 1703.5" stroke="#598A38" stroke-width="3.4375" stroke-miterlimit="2" fill="none"/><rect x="2285.5" y="1703.5" width="247" height="174" fill="#70AD47"/><rect x="2285.5" y="1703.5" width="247" height="174" stroke="#598A38" stroke-width="3.4375" stroke-miterlimit="2" fill="none"/><path d="M2285.5 1703.5 2532.5 1703.5" stroke="#598A38" stroke-width="3.4375" stroke-miterlimit="2" fill="none"/><path d="M2285.5 1877.5 2532.5 1877.5" stroke="#598A38" stroke-width="3.4375" stroke-miterlimit="2" fill="none"/><path d="M2285.5 1750.5 2532.5 1750.5" stroke="#598A38" stroke-width="3.4375" stroke-miterlimit="2" fill="none"/><path d="M2395.5 1801.5 2422.5 1773.5" stroke="#598A38" stroke-width="3.4375" stroke-miterlimit="2" fill="none"/><path d="M2395.5 1773.5 2422.5 1801.5" stroke="#598A38" stroke-width="3.4375" stroke-miterlimit="2" fill="none"/><path d="M2643.5 2151.5 2717.5 2151.5" stroke="#487CAA" stroke-width="3.4375" stroke-miterlimit="2" fill="none"/><path d="M2680.5 2002.5 2680.5 2151.5" stroke="#487CAA" stroke-width="3.4375" stroke-miterlimit="2" fill="none"/><path d="M2643.5 1740.5 2717.5 1740.5" stroke="#487CAA" stroke-width="3.4375" stroke-miterlimit="2" fill="none"/><path d="M2680.5 1740.5 2680.5 1748.5" stroke="#487CAA" stroke-width="3.4375" stroke-miterlimit="2" fill="none"/><rect x="2556.5" y="1748.5" width="248" height="254" fill="#5B9BD5"/><rect x="2556.5" y="1748.5" width="248" height="254" stroke="#487CAA" stroke-width="3.4375" stroke-miterlimit="2" fill="none"/><path d="M2556.5 1748.5 2804.5 1748.5" stroke="#487CAA" stroke-width="3.4375" stroke-miterlimit="2" fill="none"/><path d="M2556.5 2002.5 2804.5 2002.5" stroke="#487CAA" stroke-width="3.4375" stroke-miterlimit="2" fill="none"/><path d="M2556.5 1849.5 2804.5 1849.5" stroke="#487CAA" stroke-width="3.4375" stroke-miterlimit="2" fill="none"/><path d="M2666.5 1899.5 2694.5 1872.5" stroke="#487CAA" stroke-width="3.4375" stroke-miterlimit="2" fill="none"/><path d="M2666.5 1872.5 2694.5 1899.5" stroke="#487CAA" stroke-width="3.4375" stroke-miterlimit="2" fill="none"/><path d="M2915.5 2111.5 2989.5 2111.5" stroke="#CC9900" stroke-width="3.4375" stroke-miterlimit="2" fill="none"/><path d="M2952.5 1884.5 2952.5 2111.5" stroke="#CC9900" stroke-width="3.4375" stroke-miterlimit="2" fill="none"/><path d="M2915.5 1713.5 2989.5 1713.5" stroke="#CC9900" stroke-width="3.4375" stroke-miterlimit="2" fill="none"/><path d="M2952.5 1713.5 2952.5 1722.5" stroke="#CC9900" stroke-width="3.4375" stroke-miterlimit="2" fill="none"/><rect x="2828.5" y="1722.5" width="247" height="162" fill="#FFC000"/><rect x="2828.5" y="1722.5" width="247" height="162" stroke="#CC9900" stroke-width="3.4375" stroke-miterlimit="2" fill="none"/><path d="M2828.5 1722.5 3075.5 1722.5" stroke="#CC9900" stroke-width="3.4375" stroke-miterlimit="2" fill="none"/><path d="M2828.5 1884.5 3075.5 1884.5" stroke="#CC9900" stroke-width="3.4375" stroke-miterlimit="2" fill="none"/><path d="M2828.5 1780.5 3075.5 1780.5" stroke="#CC9900" stroke-width="3.4375" stroke-miterlimit="2" fill="none"/><path d="M2938.5 1835.5 2965.5 1807.5" stroke="#CC9900" stroke-width="3.4375" stroke-miterlimit="2" fill="none"/><path d="M2938.5 1807.5 2965.5 1835.5" stroke="#CC9900" stroke-width="3.4375" stroke-miterlimit="2" fill="none"/></g><path d="M1888.5 2286.5 1888.5 1514.5" stroke="#D9D9D9" stroke-width="3.4375" stroke-miterlimit="2" fill="none"/><text fill="#595959" font-family="Calibri,Calibri_MSFontService,sans-serif" font-weight="400" font-size="12" transform="matrix(3.4375 0 0 3.4375 1805.87 2261.39)" x="0.11733" y="3.3519">0.8<tspan font-size="12" x="-6.03746" y="-19.09">0.82</tspan><tspan font-size="12" x="-6.03746" y="-41.5319">0.84</tspan><tspan font-size="12" x="-6.03746" y="-63.9738">0.86</tspan><tspan font-size="12" x="-6.03746" y="-86.5003">0.88</tspan><tspan font-size="12" x="0.11733" y="-108.942">0.9</tspan><tspan font-size="12" x="-6.03746" y="-131.384">0.92</tspan><tspan font-size="12" x="-6.03746" y="-153.826">0.94</tspan><tspan font-size="12" x="-6.03746" y="-176.268">0.96</tspan><tspan font-size="12" x="-6.03746" y="-198.794">0.98</tspan><tspan font-size="12" x="9.33597" y="-221.236">1</tspan></text><g><text fill="#595959" font-family="Calibri,Calibri_MSFontService,sans-serif" font-weight="400" font-size="64" transform="translate(2182.27 1323)">X</text></g><g><text fill="#595959" font-family="Calibri,Calibri_MSFontService,sans-serif" font-weight="400" font-size="64" transform="translate(2215.57 1323)">-</text></g><g><text fill="#595959" font-family="Calibri,Calibri_MSFontService,sans-serif" font-weight="400" font-size="64" transform="translate(2235.21 1323)">Ray Accuracy by Model Structure</text></g><rect x="2197" y="1358" width="886" height="114" fill="#000000" fill-opacity="0"/><rect x="2238.5" y="1398.5" width="33" height="33" fill="#70AD47"/><rect x="2238.5" y="1398.5" width="33" height="33" stroke="#598A38" stroke-width="3.4375" stroke-miterlimit="2" fill="none"/><text fill="#595959" font-family="Calibri,Calibri_MSFontService,sans-serif" font-weight="400" font-size="12" transform="matrix(3.4375 0 0 3.4375 2287.66 1389.68)" x="0.232102" y="3.41189">XRAY ConvNeXt</text><rect x="2582.5" y="1398.5" width="33" height="33" fill="#5B9BD5"/><rect x="2582.5" y="1398.5" width="33" height="33" stroke="#487CAA" stroke-width="3.4375" stroke-miterlimit="2" fill="none"/><text fill="#595959" font-family="Calibri,Calibri_MSFontService,sans-serif" font-weight="400" font-size="12" transform="matrix(3.4375 0 0 3.4375 2631.96 1389.68)" x="0.106534" y="3.41189">XRAY SwinT</text><rect x="2860.5" y="1398.5" width="33" height="33" fill="#FFC000"/><rect x="2860.5" y="1398.5" width="33" height="33" stroke="#CC9900" stroke-width="3.4375" stroke-miterlimit="2" fill="none"/><text fill="#595959" font-family="Calibri,Calibri_MSFontService,sans-serif" font-weight="400" font-size="12" transform="matrix(3.4375 0 0 3.4375 2909.81 1389.68)" x="0.177557" y="3.41189">XRAY ViT</text><path d="M1760 1238 3520 1238 3520 2338 1760 2338Z" fill="#000000" fill-rule="evenodd" fill-opacity="0"/></g></svg>