<svg width="1761" height="1111" xmlns="http://www.w3.org/2000/svg" xmlns:xlink="http://www.w3.org/1999/xlink" xml:space="preserve" overflow="hidden"><defs><clipPath id="clip0"><rect x="1759" y="9418" width="1761" height="1111"/></clipPath></defs><g clip-path="url(#clip0)" transform="translate(-1759 -9418)"><rect x="1760" y="9419" width="1758" height="1108" fill="#FFFFFF"/><g><path d="M2124.57 9588.5 2124.57 10316.5M2342.58 9588.5 2342.58 10316.5M2559.58 9588.5 2559.58 10316.5M2777.59 9588.5 2777.59 10316.5M2995.6 9588.5 2995.6 10316.5M3213.61 9588.5 3213.61 10316.5M3431.5 9588.5 3431.5 10316.5" stroke="#D9D9D9" stroke-width="3.4375" stroke-linejoin="round" stroke-miterlimit="10" fill="none"/></g><g><path d="M2623.09 10247.3 1907 10247.3 1907 10172.3 2623.09 10172.3ZM3148.1 9883.32 1907 9883.32 1907 9808.32 3148.1 9808.32Z" fill="#70AD47"/></g><g><path d="M2837.09 10172.3 1907 10172.3 1907 10096.3 2837.09 10096.3ZM3294.11 9808.32 1907 9808.32 1907 9733.32 3294.11 9733.32Z" fill="#5B9BD5"/></g><g><path d="M2702.09 10096.3 1907 10096.3 1907 10021.3 2702.09 10021.3ZM3209.11 9733.32 1907 9733.32 1907 9657.32 3209.11 9657.32Z" fill="#FFC000"/></g><g><path d="M0 0 0.000360892 728" stroke="#D9D9D9" stroke-width="3.4375" stroke-linejoin="round" stroke-miterlimit="10" fill="none" fill-rule="evenodd" transform="matrix(1 0 0 -1 1906.5 10316.5)"/></g><g><text fill="#595959" font-family="Calibri,Calibri_MSFontService,sans-serif" font-weight="400" font-size="41" transform="matrix(1 0 0 1 1896.05 10381)">0</text></g><g><text fill="#595959" font-family="Calibri,Calibri_MSFontService,sans-serif" font-weight="400" font-size="41" transform="matrix(1 0 0 1 2087.78 10381)">0.05</text></g><g><text fill="#595959" font-family="Calibri,Calibri_MSFontService,sans-serif" font-weight="400" font-size="41" transform="matrix(1 0 0 1 2316.06 10381)">0.1</text></g><g><text fill="#595959" font-family="Calibri,Calibri_MSFontService,sans-serif" font-weight="400" font-size="41" transform="matrix(1 0 0 1 2523.44 10381)">0.15</text></g><g><text fill="#595959" font-family="Calibri,Calibri_MSFontService,sans-serif" font-weight="400" font-size="41" transform="matrix(1 0 0 1 2751.72 10381)">0.2</text></g><g><text fill="#595959" font-family="Calibri,Calibri_MSFontService,sans-serif" font-weight="400" font-size="41" transform="matrix(1 0 0 1 2959.1 10381)">0.25</text></g><g><text fill="#595959" font-family="Calibri,Calibri_MSFontService,sans-serif" font-weight="400" font-size="41" transform="matrix(1 0 0 1 3187.38 10381)">0.3</text></g><g><text fill="#595959" font-family="Calibri,Calibri_MSFontService,sans-serif" font-weight="400" font-size="41" transform="matrix(1 0 0 1 3394.76 10381)">0.35</text></g><g><text fill="#595959" font-family="Calibri,Calibri_MSFontService,sans-serif" font-weight="400" font-size="41" transform="matrix(1 0 0 1 1826.09 10146)">CE</text></g><g><text fill="#595959" font-family="Calibri,Calibri_MSFontService,sans-serif" font-weight="400" font-size="41" transform="matrix(1 0 0 1 1789.79 9782)">LSCE</text></g><g><text fill="#595959" font-family="Calibri,Calibri_MSFontService,sans-serif" font-weight="400" font-size="64" transform="matrix(1 0 0 1 2267.64 9514)">XRAY Test Best Model Losses</text></g><g><rect x="2404" y="10450" width="22" height="22" fill="#FFC000"/></g><g><text fill="#595959" font-family="Calibri,Calibri_MSFontService,sans-serif" font-weight="400" font-size="41" transform="matrix(1 0 0 1 2435.9 10473)">ViT</text></g><g><rect x="2525" y="10450" width="22" height="22" fill="#5B9BD5"/></g><g><text fill="#595959" font-family="Calibri,Calibri_MSFontService,sans-serif" font-weight="400" font-size="41" transform="matrix(1 0 0 1 2556.93 10473)">SwinT</text></g><g><rect x="2692" y="10450" width="23" height="22" fill="#70AD47"/></g><g><text fill="#595959" font-family="Calibri,Calibri_MSFontService,sans-serif" font-weight="400" font-size="41" transform="matrix(1 0 0 1 2724.68 10473)">ConvNeXt</text></g><rect x="1760.5" y="9419.5" width="1758" height="1108" stroke="#D9D9D9" stroke-width="3.4375" stroke-linejoin="round" stroke-miterlimit="10" fill="none"/></g></svg>