<svg width="1758" height="1095" xmlns="http://www.w3.org/2000/svg" xmlns:xlink="http://www.w3.org/1999/xlink" xml:space="preserve" overflow="hidden"><defs><clipPath id="clip0"><rect x="1764" y="8319" width="1758" height="1095"/></clipPath></defs><g clip-path="url(#clip0)" transform="translate(-1764 -8319)"><rect x="1765" y="8320" width="1755" height="1092" fill="#FFFFFF"/><g><path d="M2192.57 8490.5 2192.57 9200.5M2398.58 8490.5 2398.58 9200.5M2605.59 8490.5 2605.59 9200.5M2812.59 8490.5 2812.59 9200.5M3019.6 8490.5 3019.6 9200.5M3226.61 8490.5 3226.61 9200.5M3433.5 8490.5 3433.5 9200.5" stroke="#D9D9D9" stroke-width="3.4375" stroke-linejoin="round" stroke-miterlimit="10" fill="none"/></g><g><path d="M3275.11 9167.3 1985 9167.3 1985 9130.3 3275.11 9130.3ZM2935.1 8989.29 1985 8989.29 1985 8952.29 2935.1 8952.29ZM3095.1 8812.29 1985 8812.29 1985 8775.29 3095.1 8775.29ZM3272.11 8634.28 1985 8634.28 1985 8597.28 3272.11 8597.28Z" fill="#70AD47"/></g><g><path d="M2598.09 9130.3 1985 9130.3 1985 9093.3 2598.09 9093.3ZM2598.09 8952.29 1985 8952.29 1985 8916.29 2598.09 8916.29ZM2598.09 8775.29 1985 8775.29 1985 8738.29 2598.09 8738.29ZM2845.09 8597.28 1985 8597.28 1985 8561.28 2845.09 8561.28Z" fill="#5B9BD5"/></g><g><path d="M2680.09 9093.3 1985 9093.3 1985 9056.3 2680.09 9056.3ZM2492.08 8916.29 1985 8916.29 1985 8879.29 2492.08 8879.29ZM2582.08 8738.29 1985 8738.29 1985 8701.29 2582.08 8701.29ZM2845.09 8561.28 1985 8561.28 1985 8524.28 2845.09 8524.28Z" fill="#FFC000"/></g><g><path d="M0 0 0.000360892 710" stroke="#D9D9D9" stroke-width="3.4375" stroke-linejoin="round" stroke-miterlimit="10" fill="none" fill-rule="evenodd" transform="matrix(1 0 0 -1 1985.5 9200.5)"/></g><g><text fill="#595959" font-family="Calibri,Calibri_MSFontService,sans-serif" font-weight="400" font-size="41" transform="matrix(1 0 0 1 1959.28 9266)">0.9</text></g><g><text fill="#595959" font-family="Calibri,Calibri_MSFontService,sans-serif" font-weight="400" font-size="41" transform="matrix(1 0 0 1 2155.64 9266)">0.91</text></g><g><text fill="#595959" font-family="Calibri,Calibri_MSFontService,sans-serif" font-weight="400" font-size="41" transform="matrix(1 0 0 1 2362.44 9266)">0.92</text></g><g><text fill="#595959" font-family="Calibri,Calibri_MSFontService,sans-serif" font-weight="400" font-size="41" transform="matrix(1 0 0 1 2569.25 9266)">0.93</text></g><g><text fill="#595959" font-family="Calibri,Calibri_MSFontService,sans-serif" font-weight="400" font-size="41" transform="matrix(1 0 0 1 2776.06 9266)">0.94</text></g><g><text fill="#595959" font-family="Calibri,Calibri_MSFontService,sans-serif" font-weight="400" font-size="41" transform="matrix(1 0 0 1 2982.86 9266)">0.95</text></g><g><text fill="#595959" font-family="Calibri,Calibri_MSFontService,sans-serif" font-weight="400" font-size="41" transform="matrix(1 0 0 1 3189.67 9266)">0.96</text></g><g><text fill="#595959" font-family="Calibri,Calibri_MSFontService,sans-serif" font-weight="400" font-size="41" transform="matrix(1 0 0 1 3396.48 9266)">0.97</text></g><g><text fill="#595959" font-family="Calibri,Calibri_MSFontService,sans-serif" font-weight="400" font-size="41" transform="matrix(1 0 0 1 1794.95 9123)">Precision</text></g><g><text fill="#595959" font-family="Calibri,Calibri_MSFontService,sans-serif" font-weight="400" font-size="41" transform="matrix(1 0 0 1 1848.07 8946)">Recall</text></g><g><text fill="#595959" font-family="Calibri,Calibri_MSFontService,sans-serif" font-weight="400" font-size="41" transform="matrix(1 0 0 1 1804.87 8768)">F1 Score</text></g><g><text fill="#595959" font-family="Calibri,Calibri_MSFontService,sans-serif" font-weight="400" font-size="41" transform="matrix(1 0 0 1 1796.41 8591)">Accuracy</text></g><g><text fill="#595959" font-family="Calibri,Calibri_MSFontService,sans-serif" font-weight="400" font-size="64" transform="matrix(1 0 0 1 2240.38 8416)">XRAY Test Best Model Statistics</text></g><g><rect x="2407" y="9334" width="23" height="23" fill="#FFC000"/></g><g><text fill="#595959" font-family="Calibri,Calibri_MSFontService,sans-serif" font-weight="400" font-size="41" transform="matrix(1 0 0 1 2439.34 9357)">ViT</text></g><g><rect x="2528" y="9334" width="23" height="23" fill="#5B9BD5"/></g><g><text fill="#595959" font-family="Calibri,Calibri_MSFontService,sans-serif" font-weight="400" font-size="41" transform="matrix(1 0 0 1 2560.37 9357)">SwinT</text></g><g><rect x="2696" y="9334" width="23" height="23" fill="#70AD47"/></g><g><text fill="#595959" font-family="Calibri,Calibri_MSFontService,sans-serif" font-weight="400" font-size="41" transform="matrix(1 0 0 1 2728.12 9357)">ConvNeXt</text></g><rect x="1765.5" y="8320.5" width="1755" height="1092" stroke="#D9D9D9" stroke-width="3.4375" stroke-linejoin="round" stroke-miterlimit="10" fill="none"/></g></svg>