<svg width="1760" height="1101" xmlns="http://www.w3.org/2000/svg" xmlns:xlink="http://www.w3.org/1999/xlink" xml:space="preserve" overflow="hidden"><defs><clipPath id="clip0"><rect x="0" y="1237" width="1760" height="1101"/></clipPath></defs><g clip-path="url(#clip0)" transform="matrix(1 0 0 1 0 -1237)"><rect x="0.5" y="1237.5" width="1760" height="1100" fill="#FFFFFF"/><rect x="0.5" y="1237.5" width="1760" height="1100" stroke="#D9D9D9" stroke-width="3.4375" stroke-miterlimit="2" fill="none"/><g><path d="M128.5 2286.5 1730.5 2286.5" stroke="#D9D9D9" stroke-width="3.4375" stroke-miterlimit="2" fill="none"/><path d="M128.5 2209.5 1730.5 2209.5" stroke="#D9D9D9" stroke-width="3.4375" stroke-miterlimit="2" fill="none"/><path d="M128.5 2132.5 1730.5 2132.5" stroke="#D9D9D9" stroke-width="3.4375" stroke-miterlimit="2" fill="none"/><path d="M128.5 2055.5 1730.5 2055.5" stroke="#D9D9D9" stroke-width="3.4375" stroke-miterlimit="2" fill="none"/><path d="M128.5 1978.5 1730.5 1978.5" stroke="#D9D9D9" stroke-width="3.4375" stroke-miterlimit="2" fill="none"/><path d="M128.5 1900.5 1730.5 1900.5" stroke="#D9D9D9" stroke-width="3.4375" stroke-miterlimit="2" fill="none"/><path d="M128.5 1823.5 1730.5 1823.5" stroke="#D9D9D9" stroke-width="3.4375" stroke-miterlimit="2" fill="none"/><path d="M128.5 1746.5 1730.5 1746.5" stroke="#D9D9D9" stroke-width="3.4375" stroke-miterlimit="2" fill="none"/><path d="M128.5 1669.5 1730.5 1669.5" stroke="#D9D9D9" stroke-width="3.4375" stroke-miterlimit="2" fill="none"/><path d="M128.5 1591.5 1730.5 1591.5" stroke="#D9D9D9" stroke-width="3.4375" stroke-miterlimit="2" fill="none"/><path d="M128.5 1514.5 1730.5 1514.5" stroke="#D9D9D9" stroke-width="3.4375" stroke-miterlimit="2" fill="none"/><path d="M611.5 1875.5 686.5 1875.5" stroke="#598A38" stroke-width="3.4375" stroke-miterlimit="2" fill="none"/><path d="M649.5 1780.5 649.5 1875.5" stroke="#598A38" stroke-width="3.4375" stroke-miterlimit="2" fill="none"/><path d="M611.5 1558.5 686.5 1558.5" stroke="#598A38" stroke-width="3.4375" stroke-miterlimit="2" fill="none"/><path d="M649.5 1558.5 649.5 1569.5" stroke="#598A38" stroke-width="3.4375" stroke-miterlimit="2" fill="none"/><rect x="525.5" y="1569.5" width="247" height="211" fill="#70AD47"/><rect x="525.5" y="1569.5" width="247" height="211" stroke="#598A38" stroke-width="3.4375" stroke-miterlimit="2" fill="none"/><path d="M525.5 1569.5 772.5 1569.5" stroke="#598A38" stroke-width="3.4375" stroke-miterlimit="2" fill="none"/><path d="M525.5 1780.5 772.5 1780.5" stroke="#598A38" stroke-width="3.4375" stroke-miterlimit="2" fill="none"/><path d="M525.5 1645.5 772.5 1645.5" stroke="#598A38" stroke-width="3.4375" stroke-miterlimit="2" fill="none"/><path d="M635.5 1691.5 662.5 1663.5" stroke="#598A38" stroke-width="3.4375" stroke-miterlimit="2" fill="none"/><path d="M635.5 1663.5 662.5 1691.5" stroke="#598A38" stroke-width="3.4375" stroke-miterlimit="2" fill="none"/><path d="M883.5 1867.5 957.5 1867.5" stroke="#487CAA" stroke-width="3.4375" stroke-miterlimit="2" fill="none"/><path d="M920.5 1822.5 920.5 1867.5" stroke="#487CAA" stroke-width="3.4375" stroke-miterlimit="2" fill="none"/><path d="M883.5 1591.5 957.5 1591.5" stroke="#487CAA" stroke-width="3.4375" stroke-miterlimit="2" fill="none"/><path d="M920.5 1591.5 920.5 1603.5" stroke="#487CAA" stroke-width="3.4375" stroke-miterlimit="2" fill="none"/><rect x="796.5" y="1603.5" width="248" height="219" fill="#5B9BD5"/><rect x="796.5" y="1603.5" width="248" height="219" stroke="#487CAA" stroke-width="3.4375" stroke-miterlimit="2" fill="none"/><path d="M796.5 1603.5 1044.5 1603.5" stroke="#487CAA" stroke-width="3.4375" stroke-miterlimit="2" fill="none"/><path d="M796.5 1822.5 1044.5 1822.5" stroke="#487CAA" stroke-width="3.4375" stroke-miterlimit="2" fill="none"/><path d="M796.5 1687.5 1044.5 1687.5" stroke="#487CAA" stroke-width="3.4375" stroke-miterlimit="2" fill="none"/><path d="M906.5 1724.5 934.5 1696.5" stroke="#487CAA" stroke-width="3.4375" stroke-miterlimit="2" fill="none"/><path d="M906.5 1696.5 934.5 1724.5" stroke="#487CAA" stroke-width="3.4375" stroke-miterlimit="2" fill="none"/><path d="M1155.5 2007.5 1229.5 2007.5" stroke="#CC9900" stroke-width="3.4375" stroke-miterlimit="2" fill="none"/><path d="M1192.5 1894.5 1192.5 2007.5" stroke="#CC9900" stroke-width="3.4375" stroke-miterlimit="2" fill="none"/><path d="M1155.5 1628.5 1229.5 1628.5" stroke="#CC9900" stroke-width="3.4375" stroke-miterlimit="2" fill="none"/><path d="M1192.5 1628.5 1192.5 1642.5" stroke="#CC9900" stroke-width="3.4375" stroke-miterlimit="2" fill="none"/><rect x="1068.5" y="1642.5" width="247" height="252" fill="#FFC000"/><rect x="1068.5" y="1642.5" width="247" height="252" stroke="#CC9900" stroke-width="3.4375" stroke-miterlimit="2" fill="none"/><path d="M1068.5 1642.5 1315.5 1642.5" stroke="#CC9900" stroke-width="3.4375" stroke-miterlimit="2" fill="none"/><path d="M1068.5 1894.5 1315.5 1894.5" stroke="#CC9900" stroke-width="3.4375" stroke-miterlimit="2" fill="none"/><path d="M1068.5 1751.5 1315.5 1751.5" stroke="#CC9900" stroke-width="3.4375" stroke-miterlimit="2" fill="none"/><path d="M1178.5 1790.5 1205.5 1762.5" stroke="#CC9900" stroke-width="3.4375" stroke-miterlimit="2" fill="none"/><path d="M1178.5 1762.5 1205.5 1790.5" stroke="#CC9900" stroke-width="3.4375" stroke-miterlimit="2" fill="none"/></g><path d="M128.5 2286.5 128.5 1514.5" stroke="#D9D9D9" stroke-width="3.4375" stroke-miterlimit="2" fill="none"/><text fill="#595959" font-family="Calibri,Calibri_MSFontService,sans-serif" font-weight="400" font-size="12" transform="matrix(3.4375 0 0 3.4375 45.8661 2261.39)" x="0.11733" y="3.3519">0.8<tspan font-size="12" x="-6.03746" y="-19.09">0.82</tspan><tspan font-size="12" x="-6.03746" y="-41.5319">0.84</tspan><tspan font-size="12" x="-6.03746" y="-63.9738">0.86</tspan><tspan font-size="12" x="-6.03746" y="-86.5003">0.88</tspan><tspan font-size="12" x="0.11733" y="-108.942">0.9</tspan><tspan font-size="12" x="-6.03746" y="-131.384">0.92</tspan><tspan font-size="12" x="-6.03746" y="-153.826">0.94</tspan><tspan font-size="12" x="-6.03746" y="-176.268">0.96</tspan><tspan font-size="12" x="-6.03746" y="-198.794">0.98</tspan><tspan font-size="12" x="9.33596" y="-221.236">1</tspan></text><g><text fill="#595959" font-family="Calibri,Calibri_MSFontService,sans-serif" font-weight="400" font-size="64" transform="translate(388.117 1323)">Landuse Accuracy by Model Structure</text></g><rect x="325" y="1358" width="1110" height="114" fill="#000000" fill-opacity="0"/><rect x="366.5" y="1398.5" width="33" height="33" fill="#70AD47"/><rect x="366.5" y="1398.5" width="33" height="33" stroke="#598A38" stroke-width="3.4375" stroke-miterlimit="2" fill="none"/><text fill="#595959" font-family="Calibri,Calibri_MSFontService,sans-serif" font-weight="400" font-size="12" transform="matrix(3.4375 0 0 3.4375 415.523 1389.68)" x="0.154545" y="3.41189">LANDUSE ConvNeXt</text><rect x="785.5" y="1398.5" width="33" height="33" fill="#5B9BD5"/><rect x="785.5" y="1398.5" width="33" height="33" stroke="#487CAA" stroke-width="3.4375" stroke-miterlimit="2" fill="none"/><text fill="#595959" font-family="Calibri,Calibri_MSFontService,sans-serif" font-weight="400" font-size="12" transform="matrix(3.4375 0 0 3.4375 834.578 1389.68)" x="0.174432" y="3.41189">LANDUSE SwinT</text><rect x="1137.5" y="1398.5" width="33" height="33" fill="#FFC000"/><rect x="1137.5" y="1398.5" width="33" height="33" stroke="#CC9900" stroke-width="3.4375" stroke-miterlimit="2" fill="none"/><text fill="#595959" font-family="Calibri,Calibri_MSFontService,sans-serif" font-weight="400" font-size="12" transform="matrix(3.4375 0 0 3.4375 1187.19 1389.68)" x="0.1" y="3.41189">LANDUSE ViT</text><path d="M0 1238 1760 1238 1760 2338 0 2338Z" fill="#000000" fill-rule="evenodd" fill-opacity="0"/></g></svg>