<svg width="1761" height="1112" xmlns="http://www.w3.org/2000/svg" xmlns:xlink="http://www.w3.org/1999/xlink" xml:space="preserve" overflow="hidden"><defs><clipPath id="clip0"><rect x="1" y="9419" width="1761" height="1112"/></clipPath></defs><g clip-path="url(#clip0)" transform="translate(-1 -9419)"><rect x="2.00007" y="9420" width="1758" height="1109" fill="#FFFFFF"/><g><path d="M318.511 9590.5 318.511 10317.5M489.516 9590.5 489.516 10317.5M659.522 9590.5 659.522 10317.5M830.527 9590.5 830.527 10317.5M1001.53 9590.5 1001.53 10317.5M1171.54 9590.5 1171.54 10317.5M1342.54 9590.5 1342.54 10317.5M1512.55 9590.5 1512.55 10317.5M1683.5 9590.5 1683.5 10317.5" stroke="#D9D9D9" stroke-width="3.4375" stroke-linejoin="round" stroke-miterlimit="10" fill="none"/></g><g><path d="M514.017 10249.3 148 10249.3 148 10173.3 514.017 10173.3ZM1377.05 9885.32 148 9885.32 148 9810.32 1377.05 9810.32Z" fill="#70AD47"/></g><g><path d="M519.017 10173.3 148 10173.3 148 10098.3 519.017 10098.3ZM1421.05 9810.32 148 9810.32 148 9734.32 1421.05 9734.32Z" fill="#5B9BD5"/></g><g><path d="M636.021 10098.3 148 10098.3 148 10023.3 636.021 10023.3ZM1499.05 9734.32 148 9734.32 148 9659.32 1499.05 9659.32Z" fill="#FFC000"/></g><g><path d="M0 0 0.000360892 727" stroke="#D9D9D9" stroke-width="3.4375" stroke-linejoin="round" stroke-miterlimit="10" fill="none" fill-rule="evenodd" transform="matrix(1 0 0 -1 148.5 10317.5)"/></g><g><text fill="#595959" font-family="Calibri,Calibri_MSFontService,sans-serif" font-weight="400" font-size="41" transform="matrix(1 0 0 1 137.771 10383)">0</text></g><g><text fill="#595959" font-family="Calibri,Calibri_MSFontService,sans-serif" font-weight="400" font-size="41" transform="matrix(1 0 0 1 292.704 10383)">0.1</text></g><g><text fill="#595959" font-family="Calibri,Calibri_MSFontService,sans-serif" font-weight="400" font-size="41" transform="matrix(1 0 0 1 463.288 10383)">0.2</text></g><g><text fill="#595959" font-family="Calibri,Calibri_MSFontService,sans-serif" font-weight="400" font-size="41" transform="matrix(1 0 0 1 633.873 10383)">0.3</text></g><g><text fill="#595959" font-family="Calibri,Calibri_MSFontService,sans-serif" font-weight="400" font-size="41" transform="matrix(1 0 0 1 804.457 10383)">0.4</text></g><g><text fill="#595959" font-family="Calibri,Calibri_MSFontService,sans-serif" font-weight="400" font-size="41" transform="matrix(1 0 0 1 975.042 10383)">0.5</text></g><g><text fill="#595959" font-family="Calibri,Calibri_MSFontService,sans-serif" font-weight="400" font-size="41" transform="matrix(1 0 0 1 1145.63 10383)">0.6</text></g><g><text fill="#595959" font-family="Calibri,Calibri_MSFontService,sans-serif" font-weight="400" font-size="41" transform="matrix(1 0 0 1 1316.21 10383)">0.7</text></g><g><text fill="#595959" font-family="Calibri,Calibri_MSFontService,sans-serif" font-weight="400" font-size="41" transform="matrix(1 0 0 1 1486.8 10383)">0.8</text></g><g><text fill="#595959" font-family="Calibri,Calibri_MSFontService,sans-serif" font-weight="400" font-size="41" transform="matrix(1 0 0 1 1657.38 10383)">0.9</text></g><g><text fill="#595959" font-family="Calibri,Calibri_MSFontService,sans-serif" font-weight="400" font-size="41" transform="matrix(1 0 0 1 67.8106 10148)">CE</text></g><g><text fill="#595959" font-family="Calibri,Calibri_MSFontService,sans-serif" font-weight="400" font-size="41" transform="matrix(1 0 0 1 31.5102 9784)">LSCE</text></g><g><text fill="#595959" font-family="Calibri,Calibri_MSFontService,sans-serif" font-weight="400" font-size="64" transform="matrix(1 0 0 1 451.779 9516)">LANDUSE Test Best Model Losses</text></g><g><rect x="645" y="10452" width="23.0001" height="22" fill="#FFC000"/></g><g><text fill="#595959" font-family="Calibri,Calibri_MSFontService,sans-serif" font-weight="400" font-size="41" transform="matrix(1 0 0 1 677.622 10474)">ViT</text></g><g><rect x="766" y="10452" width="23.0001" height="22" fill="#5B9BD5"/></g><g><text fill="#595959" font-family="Calibri,Calibri_MSFontService,sans-serif" font-weight="400" font-size="41" transform="matrix(1 0 0 1 798.648 10474)">SwinT</text></g><g><rect x="934" y="10452" width="23.0001" height="22" fill="#70AD47"/></g><g><text fill="#595959" font-family="Calibri,Calibri_MSFontService,sans-serif" font-weight="400" font-size="41" transform="matrix(1 0 0 1 966.401 10474)">ConvNeXt</text></g><rect x="2.4999" y="9420.5" width="1758" height="1109" stroke="#D9D9D9" stroke-width="3.4375" stroke-linejoin="round" stroke-miterlimit="10" fill="none"/></g></svg>