<svg width="1760" height="1094" xmlns="http://www.w3.org/2000/svg" xmlns:xlink="http://www.w3.org/1999/xlink" xml:space="preserve" overflow="hidden"><defs><clipPath id="clip0"><rect x="-1" y="8323" width="1760" height="1094"/></clipPath></defs><g clip-path="url(#clip0)" transform="translate(1 -8323)"><rect x="0" y="8324" width="1757" height="1091" fill="#FFFFFF"/><g><path d="M380.513 8493.5 380.513 9204.5M539.518 8493.5 539.518 9204.5M699.523 8493.5 699.523 9204.5M859.528 8493.5 859.528 9204.5M1019.53 8493.5 1019.53 9204.5M1179.54 8493.5 1179.54 9204.5M1339.54 8493.5 1339.54 9204.5M1499.55 8493.5 1499.55 9204.5M1659.5 8493.5 1659.5 9204.5" stroke="#D9D9D9" stroke-width="3.4375" stroke-linejoin="round" stroke-miterlimit="10" fill="none"/></g><g><path d="M1464.05 9170.3 220 9170.3 220 9133.3 1464.05 9133.3ZM1454.05 8993.29 220 8993.29 220 8956.29 1454.05 8956.29ZM1453.05 8815.29 220 8815.29 220 8778.29 1453.05 8778.29ZM1454.05 8638.28 220 8638.28 220 8601.28 1454.05 8601.28Z" fill="#70AD47"/></g><g><path d="M1283.04 9133.3 220 9133.3 220 9097.3 1283.04 9097.3ZM1271.04 8956.29 220 8956.29 220 8919.29 1271.04 8919.29ZM1268.04 8778.29 220 8778.29 220 8742.29 1268.04 8742.29ZM1271.04 8601.28 220 8601.28 220 8564.28 1271.04 8564.28Z" fill="#5B9BD5"/></g><g><path d="M746.024 9097.3 220 9097.3 220 9060.3 746.024 9060.3ZM723.024 8919.29 220 8919.29 220 8882.29 723.024 8882.29ZM725.024 8742.29 220 8742.29 220 8705.29 725.024 8705.29ZM723.024 8564.28 220 8564.28 220 8527.28 723.024 8527.28Z" fill="#FFC000"/></g><g><path d="M0 0 0.000360892 711" stroke="#D9D9D9" stroke-width="3.4375" stroke-linejoin="round" stroke-miterlimit="10" fill="none" fill-rule="evenodd" transform="matrix(1 0 0 -1 220.5 9204.5)"/></g><g><text fill="#595959" font-family="Calibri,Calibri_MSFontService,sans-serif" font-weight="400" font-size="41" transform="matrix(1 0 0 1 183.674 9269)">0.95</text></g><g><text fill="#595959" font-family="Calibri,Calibri_MSFontService,sans-serif" font-weight="400" font-size="41" transform="matrix(1 0 0 1 333.104 9269)">0.955</text></g><g><text fill="#595959" font-family="Calibri,Calibri_MSFontService,sans-serif" font-weight="400" font-size="41" transform="matrix(1 0 0 1 503.433 9269)">0.96</text></g><g><text fill="#595959" font-family="Calibri,Calibri_MSFontService,sans-serif" font-weight="400" font-size="41" transform="matrix(1 0 0 1 652.863 9269)">0.965</text></g><g><text fill="#595959" font-family="Calibri,Calibri_MSFontService,sans-serif" font-weight="400" font-size="41" transform="matrix(1 0 0 1 823.193 9269)">0.97</text></g><g><text fill="#595959" font-family="Calibri,Calibri_MSFontService,sans-serif" font-weight="400" font-size="41" transform="matrix(1 0 0 1 972.623 9269)">0.975</text></g><g><text fill="#595959" font-family="Calibri,Calibri_MSFontService,sans-serif" font-weight="400" font-size="41" transform="matrix(1 0 0 1 1142.95 9269)">0.98</text></g><g><text fill="#595959" font-family="Calibri,Calibri_MSFontService,sans-serif" font-weight="400" font-size="41" transform="matrix(1 0 0 1 1292.38 9269)">0.985</text></g><g><text fill="#595959" font-family="Calibri,Calibri_MSFontService,sans-serif" font-weight="400" font-size="41" transform="matrix(1 0 0 1 1462.71 9269)">0.99</text></g><g><text fill="#595959" font-family="Calibri,Calibri_MSFontService,sans-serif" font-weight="400" font-size="41" transform="matrix(1 0 0 1 1612.14 9269)">0.995</text></g><g><text fill="#595959" font-family="Calibri,Calibri_MSFontService,sans-serif" font-weight="400" font-size="41" transform="matrix(1 0 0 1 29.7917 9127)">Precision</text></g><g><text fill="#595959" font-family="Calibri,Calibri_MSFontService,sans-serif" font-weight="400" font-size="41" transform="matrix(1 0 0 1 82.9125 8949)">Recall</text></g><g><text fill="#595959" font-family="Calibri,Calibri_MSFontService,sans-serif" font-weight="400" font-size="41" transform="matrix(1 0 0 1 39.7144 8772)">F1 Score</text></g><g><text fill="#595959" font-family="Calibri,Calibri_MSFontService,sans-serif" font-weight="400" font-size="41" transform="matrix(1 0 0 1 31.2583 8594)">Accuracy</text></g><g><text fill="#595959" font-family="Calibri,Calibri_MSFontService,sans-serif" font-weight="400" font-size="64" transform="matrix(1 0 0 1 418.504 8419)">LANDUSE Test Best Model Statistics</text></g><g><rect x="643" y="9338" width="22" height="22" fill="#FFC000"/></g><g><text fill="#595959" font-family="Calibri,Calibri_MSFontService,sans-serif" font-weight="400" font-size="41" transform="matrix(1 0 0 1 675.044 9361)">ViT</text></g><g><rect x="764" y="9338" width="22" height="22" fill="#5B9BD5"/></g><g><text fill="#595959" font-family="Calibri,Calibri_MSFontService,sans-serif" font-weight="400" font-size="41" transform="matrix(1 0 0 1 796.07 9361)">SwinT</text></g><g><rect x="932" y="9338" width="22" height="22" fill="#70AD47"/></g><g><text fill="#595959" font-family="Calibri,Calibri_MSFontService,sans-serif" font-weight="400" font-size="41" transform="matrix(1 0 0 1 963.823 9361)">ConvNeXt</text></g><rect x="0.499836" y="8324.5" width="1757" height="1091" stroke="#D9D9D9" stroke-width="3.4375" stroke-linejoin="round" stroke-miterlimit="10" fill="none"/></g></svg>